<svg xmlns="http://www.w3.org/2000/svg" xmlns:xlink="http://www.w3.org/1999/xlink" width="156" height="33" viewBox="0 0 156 33"><defs><clipPath id="b"><rect width="156" height="33"/></clipPath></defs><g id="a" clip-path="url(#b)"><rect width="156" height="33" fill="rgba(255,255,255,0)"/><g transform="translate(1.5 1.5)"><path d="M18.2,1.319,15.687,8.772a.567.567,0,0,1-.568.343,5.878,5.878,0,1,0,5.624,4.6.569.569,0,0,1,.224-.627L27.78,9.155a.392.392,0,0,1,.565.166A14.5,14.5,0,1,1,17.921.8.392.392,0,0,1,18.2,1.319Z" fill="none" stroke="#2f2f2f" stroke-width="1"/><path d="M18.608,10.959a1.067,1.067,0,0,0,1.244.184l6.819-3.937A.892.892,0,0,0,26.96,5.9a14.908,14.908,0,0,0-5.52-4.513.892.892,0,0,0-1.223.542l-2.51,7.46a1.066,1.066,0,0,0,.427,1.183A5.34,5.34,0,0,1,18.608,10.959Z" fill="#7267ef"/><text transform="translate(39.5 21.5)" font-size="20" font-family="Rubik" font-weight="700" letter-spacing="0.015em"><tspan x="0" y="0">AsTalenTuT</tspan></text></g></g></svg>